<svg width="32" height="32" xmlns="http://www.w3.org/2000/svg"><path d="M0 0h32v32H0z"/><path d="M16 12.8a4.8 4.8 0 1 0 .001 9.601A4.8 4.8 0 0 0 16 12.8zM28.8 8h-3.84c-.528 0-1.098-.41-1.262-.912l-.994-2.978c-.168-.5-.734-.91-1.264-.91H10.56c-.528 0-1.098.41-1.262.909l-.996 2.979C8.136 7.59 7.568 8 7.04 8H3.2A3.21 3.21 0 0 0 0 11.2v14.4c0 1.76 1.44 3.2 3.2 3.2h25.6c1.76 0 3.2-1.44 3.2-3.2V11.2C32 9.44 30.56 8 28.8 8zM16 25.6c-4.42 0-8-3.58-8-8s3.58-8 8-8a8 8 0 1 1 0 16zm12-12.48a1.12 1.12 0 1 1 .001-2.241A1.12 1.12 0 0 1 28 13.12z"/></svg>