<svg width="32" height="32" xmlns="http://www.w3.org/2000/svg"><path d="M26.138 20.866c0 4.056-2.654 7.226-8.073 7.78V32h-3.503v-3.318c-3.87-.332-6.673-1.806-8.7-3.834L8.7 20.866c1.401 1.438 3.392 2.692 5.862 3.134v-5.788c-3.797-.922-7.926-2.396-7.926-7.373 0-3.76 2.986-6.931 7.926-7.41V0h3.503v3.502c2.986.295 5.493 1.475 7.483 3.281l-2.912 3.835c-1.29-1.217-2.912-1.991-4.571-2.397v5.161c3.834.996 8.073 2.47 8.073 7.484zm-14.12-10.47c0 1.143 1.18 1.77 2.876 2.212V7.926c-1.88.185-2.876 1.143-2.876 2.47zm5.715 13.715c2.101-.295 3.06-1.438 3.06-2.655 0-1.364-1.29-1.99-3.06-2.507v5.162z"/><path d="M0 0h32v32H0z"/></svg>