<svg width="32" height="32" xmlns="http://www.w3.org/2000/svg"><path d="M24.615 27.077a1.18 1.18 0 0 0-.365-.865 1.183 1.183 0 0 0-.865-.366c-.334 0-.622.122-.866.366a1.183 1.183 0 0 0-.365.865c0 .333.122.622.365.865.244.244.532.366.866.366.333 0 .621-.122.865-.366a1.18 1.18 0 0 0 .365-.865zm4.923 0a1.18 1.18 0 0 0-.365-.865 1.183 1.183 0 0 0-.865-.366c-.334 0-.622.122-.866.366a1.183 1.183 0 0 0-.365.865c0 .333.122.622.365.865.244.244.532.366.866.366.333 0 .621-.122.865-.366a1.18 1.18 0 0 0 .365-.865zM32 22.769v6.154c0 .513-.18.949-.538 1.308a1.78 1.78 0 0 1-1.308.538H1.846a1.78 1.78 0 0 1-1.308-.538A1.78 1.78 0 0 1 0 28.923V22.77c0-.513.18-.948.538-1.307a1.78 1.78 0 0 1 1.308-.539h8.942l2.597 2.615c.743.718 1.615 1.077 2.615 1.077 1 0 1.872-.359 2.615-1.077l2.616-2.615h8.923c.513 0 .949.18 1.308.539.359.359.538.794.538 1.307zm-6.25-10.942c.218.526.128.974-.27 1.346l-8.615 8.615c-.23.244-.519.366-.865.366s-.635-.122-.865-.366l-8.616-8.615c-.397-.372-.487-.82-.269-1.346.218-.5.596-.75 1.135-.75h4.923V2.462c0-.334.121-.622.365-.866.244-.243.532-.365.865-.365h4.924c.333 0 .621.122.865.365.244.244.365.532.365.866v8.615h4.923c.539 0 .917.25 1.135.75z"/><path d="M0 0h32v32H0z"/></svg>