<svg width="32" height="32" xmlns="http://www.w3.org/2000/svg"><path d="M0 0h32v32H0z"/><path d="M16 4.5c7.594 0 13.75 6.156 13.75 13.75S23.594 32 16 32 2.25 25.844 2.25 18.25 8.406 4.5 16 4.5zm0 4c-5.385 0-9.75 4.365-9.75 9.75S10.615 28 16 28s9.75-4.365 9.75-9.75S21.385 8.5 16 8.5zm8-3.133 1.452-1.451a2 2 0 0 1 2.945 2.701l-.116.127-1.227 1.227A13.568 13.568 0 0 0 24 5.367l1.452-1.451L24 5.366zM11.75 0h8a2 2 0 0 1 .743 3.857A13.454 13.454 0 0 0 15.75 3a13.47 13.47 0 0 0-4.743.857 1.998 1.998 0 0 1 .594-3.852L11.75 0h8-8zm-.15 11.539a.936.936 0 0 1 .792-.097c.864.475 4.404 4.551 5.03 5.694l.05.098a2 2 0 1 1-3.527 1.88c-.8-1.127-2.695-6.371-2.695-6.864-.017-.324.1-.561.35-.711z"/></svg>