<svg width="32" height="32" xmlns="http://www.w3.org/2000/svg"><path d="M0 0h32v32H0z"/><path d="m8.709 27.635 1.681-1.682-4.342-4.343-1.682 1.682v1.978h2.366v2.366H8.71l-.001-.001zm9.665-17.152a.388.388 0 0 0-.407-.407.436.436 0 0 0-.314.13L7.635 20.223a.433.433 0 0 0-.129.315c0 .24.167.407.407.407.11 0 .221-.038.314-.13l10.018-10.017a.433.433 0 0 0 .13-.315zm-.997-3.548 7.688 7.689L9.69 30.001H2v-7.69L17.377 6.936zM30 8.71a2.38 2.38 0 0 1-.684 1.663l-3.068 3.068-7.689-7.689 3.068-3.049A2.318 2.318 0 0 1 23.29 2c.629 0 1.238.26 1.682.703l4.343 4.325a2.46 2.46 0 0 1 .684 1.682H30z"/></svg>