<svg width="32" height="32" xmlns="http://www.w3.org/2000/svg"><path d="M0 0h32v32H0z"/><path d="M18.09 24.252c-3.097 0-5.597-1.658-6.829-4.22h9.105v-2.864H10.328c-.037-.377-.037-.791-.037-1.168 0-.452 0-.867.037-1.281h10.038v-2.826h-9.067c1.268-2.525 3.73-4.145 6.79-4.145 2.575 0 4.814 1.62 5.821 3.655l4.59-2.261C26.746 6.014 23.575 3 18.09 3 12.045 3 7.082 6.467 5.44 11.893H3.5v2.826h1.418A13.92 13.92 0 0 0 4.843 16c0 .377.038.791.075 1.168H3.5v2.864h1.903C7.045 25.496 12.007 29 18.09 29c5.485 0 8.619-3.052 10.41-6.18l-4.59-2.223c-1.007 2.073-3.246 3.655-5.82 3.655z"/></svg>