<svg width="32" height="32" xmlns="http://www.w3.org/2000/svg"><path d="M0 0h32v32H0z"/><path d="M14.011 7.675a8.877 8.877 0 0 1 9.061 3.331l-15.59 3.598c.533-3.331 3.065-6.13 6.53-6.929zm9.194 13.059c-1.199 1.732-3.064 3.064-5.196 3.464-3.598.8-7.063-.666-9.061-3.464l15.59-3.465 2.532-.533L32 15.67c0-1.066-.133-2.132-.4-3.065C29.601 3.945 21.073-1.253 12.412.746 3.751 2.745-1.579 11.14.42 19.534 2.418 27.93 10.946 33.26 19.608 31.261c5.063-1.2 9.06-4.531 10.926-8.795.134-.133-7.329-1.732-7.329-1.732z"/></svg>