<svg width="32" height="32" xmlns="http://www.w3.org/2000/svg"><path d="M0 0h32v32H0z"/><path d="M17.729 2.378a2.4 2.4 0 0 1-2.379 2.379 2.4 2.4 0 0 1-2.378-2.379A2.4 2.4 0 0 1 15.35 0a2.4 2.4 0 0 1 2.379 2.378zM15.35 6.702c-1.405 0-2.486 1.081-2.486 2.487 0 1.405 1.081 2.486 2.486 2.486 1.406 0 2.487-1.081 2.487-2.486 0-1.406-1.081-2.487-2.487-2.487zm0 6.703c-1.405 0-2.594 1.189-2.594 2.594 0 1.405 1.19 2.595 2.594 2.595 1.406 0 2.595-1.19 2.595-2.595 0-1.405-1.19-2.594-2.595-2.594zm0 6.81c-1.405 0-2.486 1.081-2.486 2.486 0 1.406 1.081 2.487 2.486 2.487 1.406 0 2.487-1.081 2.487-2.487 0-1.297-1.081-2.486-2.487-2.486zm0 6.919a2.4 2.4 0 0 0-2.378 2.378 2.4 2.4 0 0 0 2.378 2.378 2.4 2.4 0 0 0 2.379-2.378 2.4 2.4 0 0 0-2.379-2.378zm6.595-20.756c-1.514 0-2.811 1.297-2.811 2.81 0 1.514 1.297 2.811 2.81 2.811 1.514 0 2.811-1.297 2.811-2.81 0-1.514-1.297-2.81-2.81-2.81zm0 6.702a2.907 2.907 0 0 0-2.92 2.92 2.907 2.907 0 0 0 2.92 2.918 2.907 2.907 0 0 0 2.918-2.919 2.907 2.907 0 0 0-2.918-2.919zm0 6.81c-1.514 0-2.811 1.298-2.811 2.811 0 1.514 1.297 2.811 2.81 2.811 1.514 0 2.811-1.297 2.811-2.81 0-1.514-1.297-2.811-2.81-2.811zm6.81-7.134c-1.73 0-3.243 1.405-3.243 3.243 0 1.73 1.405 3.243 3.243 3.243 1.838 0 3.243-1.405 3.243-3.243-.108-1.838-1.513-3.243-3.243-3.243zM8.648 7.026A2.17 2.17 0 0 0 6.486 9.19c0 1.189.973 2.162 2.162 2.162 1.19 0 2.162-.973 2.162-2.162 0-1.19-.973-2.162-2.162-2.162zm0 6.703c-1.297 0-2.27.973-2.27 2.27 0 1.297.973 2.27 2.27 2.27 1.297 0 2.27-.973 2.27-2.27 0-1.297-.973-2.27-2.27-2.27zm0 6.81a2.168 2.168 0 0 0-2.162 2.162c0 1.19.973 2.162 2.162 2.162 1.19 0 2.162-.972 2.162-2.162a2.168 2.168 0 0 0-2.162-2.162zm-6.702-6.486A1.938 1.938 0 0 0 0 16c0 1.081.865 1.946 1.946 1.946A1.938 1.938 0 0 0 3.892 16a1.938 1.938 0 0 0-1.946-1.946z"/></svg>