<svg width="32" height="32" xmlns="http://www.w3.org/2000/svg"><path d="M0 0h32v32H0z"/><path d="M14.997 7.182c1.414 0 2.613.753 3.439 2.1 1.913 3.16 4.022 4.653 6.433 4.653a2.036 2.036 0 1 1 0 4.072c-2.68 0-5.096-1.052-7.195-3.106l-.593 3.066 2.29 2.272c.336.333.545.773.593 1.268l.009.177v8.28A2.036 2.036 0 0 1 17.937 32a2.04 2.04 0 0 1-2.03-1.874l-.006-.162v-7.432l-1.766-1.751-2.104 9.618a2.04 2.04 0 0 1-2.265 1.582l-.16-.028a2.04 2.04 0 0 1-1.581-2.264l.028-.16 2.75-12.574 1.234-5.905.114-.676.044-.232c.045-.224.093-.427.15-.626.368-1.295 1.055-2.137 2.244-2.305l.192-.02.216-.009zM8.57 5.664l1.956.416a1.5 1.5 0 0 1 1.156 1.78l-1.664 7.824A1.5 1.5 0 0 1 8.24 16.84l-1.956-.416a1.5 1.5 0 0 1-1.155-1.78L6.792 6.82a1.5 1.5 0 0 1 1.78-1.156zm14.473 13.078V31l.006.098A1 1 0 0 0 25.045 31V18.881l-.176.004c-.619 0-1.227-.047-1.825-.143zM24.045 10a1 1 0 0 0-1 1v1.607a3.823 3.823 0 0 0 1.63.46l.37.01v-2.053l-.004-.12a1 1 0 0 0-.996-.904zM17.246 0a3.316 3.316 0 1 1 0 6.631 3.316 3.316 0 0 1 0-6.631z"/></svg>
