<svg width="32" height="32" xmlns="http://www.w3.org/2000/svg"><path d="M0 0h32v32H0z"/><path d="M19.252 0c2.144 0 3.216 1.459 3.216 3.131 0 2.088-1.862 4.019-4.286 4.019-2.03 0-3.214-1.2-3.158-3.184 0-1.669 1.41-3.966 4.229-3.966h-.001zm-6.597 32c-1.693 0-2.933-1.043-1.749-5.638l1.942-8.147c.338-1.302.394-1.826 0-1.826-.507 0-2.702.899-4.003 1.787L8 16.768c4.115-3.498 8.85-5.547 10.882-5.547 1.691 0 1.973 2.037 1.128 5.168l-2.226 8.563c-.394 1.512-.226 2.034.17 2.034.507 0 2.171-.627 3.806-1.931l.96 1.302C18.717 30.432 14.344 32 12.654 32h.001z"/></svg>