<svg width="32" height="32" xmlns="http://www.w3.org/2000/svg"><path d="M0 0h32v32H0z"/><path d="M12.939 2.883h6.14a70.22 70.22 0 0 1 3.255.08l.141.007c1.564.07 2.408.331 2.97.55a4.955 4.955 0 0 1 1.839 1.195 5.017 5.017 0 0 1 1.2 1.838l.084.226c.184.521.377 1.266.452 2.46l.07 1.68c.03.983.04 2.142.04 5.07l-.008 3.066a71.526 71.526 0 0 1-.087 3.4c-.069 1.563-.331 2.406-.55 2.97a4.941 4.941 0 0 1-1.195 1.837 5.022 5.022 0 0 1-1.838 1.2l-.226.084c-.52.184-1.266.377-2.461.452l-1.68.07c-.983.03-2.142.039-5.07.039l-3.067-.007a71.572 71.572 0 0 1-3.4-.087c-1.564-.07-2.408-.331-2.971-.55a4.955 4.955 0 0 1-1.84-1.195 5.021 5.021 0 0 1-1.2-1.837l-.084-.226c-.183-.521-.376-1.267-.451-2.46l-.07-1.68c-.014-.45-.023-.938-.03-1.616l-.009-4.778c.005-3.079.027-3.651.094-5.141.064-1.466.299-2.3.509-2.862l.041-.109a4.966 4.966 0 0 1 1.195-1.838 5.018 5.018 0 0 1 1.839-1.2l.225-.084c.522-.184 1.266-.377 2.462-.452l1.675-.07a82.09 82.09 0 0 1 2.006-.032zM19.136 0h-6.252a76.656 76.656 0 0 0-3.472.088C7.71.163 6.54.438 5.528.832c-1.056.413-1.95.957-2.838 1.851A7.836 7.836 0 0 0 .838 5.515C.472 6.462.21 7.532.113 9.041l-.074 1.78c-.014.462-.023.962-.03 1.656l-.008 4.871c.004 3.137.027 3.736.093 5.248.075 1.701.35 2.87.744 3.883.414 1.056.957 1.95 1.852 2.838a7.825 7.825 0 0 0 2.832 1.845c1.02.394 2.183.669 3.884.744l1.419.055c1.005.03 2.198.039 5.178.039l3.126-.007a74.303 74.303 0 0 0 3.472-.087c1.701-.075 2.871-.35 3.884-.744a7.812 7.812 0 0 0 2.832-1.845 7.831 7.831 0 0 0 1.845-2.832c.395-1.02.67-2.182.745-3.883l.055-1.418c.03-1.006.039-2.198.039-5.178l-.007-3.125a74.3 74.3 0 0 0-.087-3.471c-.075-1.701-.35-2.87-.745-3.883a7.509 7.509 0 0 0-1.832-2.845A7.825 7.825 0 0 0 26.498.837c-1.02-.394-2.183-.669-3.884-.744L21.064.03A84.486 84.486 0 0 0 19.136 0zM16.01 7.778A8.225 8.225 0 0 1 24.233 16a8.225 8.225 0 0 1-16.447 0 8.225 8.225 0 0 1 8.223-8.222zm0 2.889a5.334 5.334 0 1 0 0 10.668 5.334 5.334 0 0 0 0-10.668zm8.548-5.134a1.92 1.92 0 1 1 .001 3.84 1.92 1.92 0 0 1 0-3.84z"/></svg>