<svg width="32" height="32" xmlns="http://www.w3.org/2000/svg"><path d="M0 0h32v32H0z"/><path d="M5.8 24.458c0-.66-.544-1.208-1.2-1.208a1.2 1.2 0 0 0-1.2 1.208c0 .68.525 1.209 1.2 1.209a1.2 1.2 0 0 0 1.2-1.209zm3-9.666v12.083c0 .66-.544 1.208-1.2 1.208H2.2c-.656 0-1.2-.547-1.2-1.208V14.792c0-.661.544-1.209 1.2-1.209h5.4c.656 0 1.2.548 1.2 1.209zm22.2 0c0 1-.394 2.076-1.031 2.813.206.604.281 1.17.281 1.435a4.008 4.008 0 0 1-.806 2.586 4.02 4.02 0 0 1 0 2.21c-.188.698-.544 1.32-1.013 1.774.113 1.416-.206 2.568-.919 3.417-.806.963-2.043 1.454-3.693 1.473H21.4c-2.681 0-5.212-.887-7.237-1.586-1.182-.415-2.307-.812-2.963-.83-.637-.02-1.2-.548-1.2-1.209V14.773c0-.623.525-1.152 1.144-1.209.694-.056 2.493-2.303 3.319-3.398.675-.868 1.312-1.68 1.893-2.266.731-.736.938-1.869 1.163-2.964.206-1.114.431-2.284 1.237-3.077.225-.227.525-.359.844-.359 4.2 0 4.2 3.38 4.2 4.833 0 1.549-.544 2.644-1.05 3.625-.206.416-.394.604-.544 1.209H27.4c1.95 0 3.6 1.661 3.6 3.625z"/></svg>