<svg width="32" height="32" xmlns="http://www.w3.org/2000/svg"><path d="M0 0h32v32H0z"/><path d="M32 16.532a17.404 17.404 0 0 0-1.372-6.468 16.874 16.874 0 0 0-3.643-5.386 16.155 16.155 0 0 0-5.317-3.515 15.575 15.575 0 0 0-12.237.246 15.825 15.825 0 0 0-5.05 3.645 16.27 16.27 0 0 0-3.294 5.315 16.464 16.464 0 0 0-1.055 6.163 16.307 16.307 0 0 0 1.294 6.061 15.78 15.78 0 0 0 3.419 5.041 15.123 15.123 0 0 0 4.983 3.284 14.573 14.573 0 0 0 11.447-.246 14.795 14.795 0 0 0 4.716-3.414 15.2 15.2 0 0 0 3.925-8.423c.04.002.08.004.122.004 1.139 0 2.062-.954 2.062-2.13 0-.06-.003-.118-.008-.177H32zm-3.277 5.653a14.74 14.74 0 0 1-3.196 4.697 14.094 14.094 0 0 1-4.649 3.053 13.57 13.57 0 0 1-10.657-.246 13.765 13.765 0 0 1-4.382-3.184 14.13 14.13 0 0 1-2.846-4.625 14.276 14.276 0 0 1-.898-5.348 14.11 14.11 0 0 1 1.136-5.245 13.676 13.676 0 0 1 2.972-4.351 13.062 13.062 0 0 1 4.315-2.823 12.564 12.564 0 0 1 9.867.246c1.526.7 2.908 1.713 4.048 2.953a13.062 13.062 0 0 1 2.623 4.28 13.18 13.18 0 0 1 .82 4.94h.007a2.242 2.242 0 0 0-.008.178c0 1.098.806 2.001 1.84 2.116a15.02 15.02 0 0 1-.992 3.36z"/></svg>