<svg width="32" height="32" xmlns="http://www.w3.org/2000/svg"><path d="M0 0h32v32H0z"/><path d="M1.02 7.358c.868.48 12.886 7.139 13.334 7.386.448.248 1.027.365 1.61.365.584 0 1.163-.117 1.611-.365.448-.247 12.466-6.906 13.333-7.386C31.778 6.876 32.6 5 31.004 5H.926c-1.594 0-.773 1.875.094 2.358zm30.292 4.038L17.575 18.78c-.604.327-1.027.365-1.61.365-.584 0-1.007-.038-1.611-.365-.605-.326-12.681-6.854-13.668-7.384-.693-.374-.686.064-.686.401v13.37C0 25.937 1.006 27 1.778 27h28.444C30.994 27 32 25.937 32 25.167V11.798c0-.337.007-.775-.688-.402z"/></svg>