<svg width="32" height="32" xmlns="http://www.w3.org/2000/svg"><path d="M0 0h32v32H0z"/><path d="M15.999 17.284h-.003l-.065-.001c-2.076 0-3.768-.507-5.009-1.282 1.241-.775 2.934-1.284 5.012-1.284l.065-.001h.003l.066.001c2.075 0 3.768.507 5.008 1.282-1.24.775-2.934 1.284-5.013 1.284h-.065zm10.077-1.285c3.505-1.538 5.795-3.847 5.919-6.409 0 0-.924-.71-3.912-1.806C25.458 6.82 23.457 6.6 23.457 6.6l.01 5.709c0 .853-.344 1.725-.993 2.496a27.808 27.808 0 0 0-6.472-.748 27.804 27.804 0 0 0-6.48.75c-.65-.771-.995-1.644-.995-2.498l.01-5.708s-2.001.22-4.626 1.183C.924 8.88 0 9.59 0 9.59c.124 2.564 2.415 4.873 5.923 6.41C2.418 17.539.13 19.847.003 22.41c0 0 .925.71 3.912 1.807C6.54 25.179 8.54 25.4 8.54 25.4l-.009-5.709c0-.854.344-1.724.994-2.496a27.76 27.76 0 0 0 6.47.749H16c2.3 0 4.493-.27 6.477-.75.65.772.994 1.644.994 2.498l-.007 5.706s2-.221 4.626-1.183C31.076 23.12 32 22.408 32 22.408c-.124-2.562-2.415-4.873-5.923-6.41h-.001z"/></svg>