<svg width="32" height="32" xmlns="http://www.w3.org/2000/svg"><path d="M0 0h32v32H0z"/><path d="M10.061 9.605c1.88-2.78 5.233-4.595 9.164-4.595C25.305 5.01 30 9.354 30 14.878v11.583a.532.532 0 0 1-.526.53h-4.836a.525.525 0 0 1-.526-.53V15.684c0-2.394-1.833-5.11-4.887-5.11-3.2 0-4.887 2.716-4.887 5.11v10.774a.534.534 0 0 1-.529.53H8.974a.522.522 0 0 1-.527-.527V16.034a.695.695 0 0 0-.519-.664C3.675 14.207 2.108 10.962 2 6.315a.535.535 0 0 1 .324-.499.524.524 0 0 1 .205-.04h3.815v.026h1.154a.532.532 0 0 1 .526.51c.054 1.9.435 2.922 1.333 3.465a.523.523 0 0 0 .704-.172z"/></svg>