<svg width="32" height="32" xmlns="http://www.w3.org/2000/svg"><path d="M0 0h32v32H0z"/><path d="M16.023 0C7.173 0 0 7.156 0 15.983c0 6.772 4.221 12.556 10.182 14.882-.14-1.265-.266-3.204.055-4.585.293-1.25 1.88-7.943 1.88-7.943s-.48-.96-.48-2.374c0-2.218 1.292-3.882 2.897-3.882 1.37 0 2.03 1.026 2.03 2.251 0 1.372-.873 3.423-1.327 5.323-.38 1.59.802 2.886 2.373 2.886 2.844 0 5.036-2.993 5.036-7.316 0-3.814-2.757-6.492-6.693-6.492-4.558 0-7.23 3.416-7.23 6.932 0 1.378.526 2.858 1.188 3.655.132.16.15.3.114.46-.12.5-.392 1.599-.447 1.817-.07.3-.23.362-.536.22-1.998-.92-3.252-3.837-3.252-6.194 0-5.035 3.673-9.67 10.586-9.67 5.558 0 9.88 3.956 9.88 9.231 0 5.513-3.484 9.95-8.33 9.95-1.623 0-3.147-.84-3.687-1.84l-1.001 3.798c-.36 1.393-1.342 3.136-2.002 4.195 1.5.46 3.082.713 4.745.713C24.81 32 32 24.847 32 16.017 32 7.187 24.812.035 15.98.035L16.024 0z"/></svg>