<svg width="32" height="32" xmlns="http://www.w3.org/2000/svg"><path d="M0 0h32v32H0z"/><path d="M25 1c1.65 0 3 1.35 3 3v24a3 3 0 0 1-2.824 2.995L25 31H7a3 3 0 0 1-2.995-2.824L4 28V4a3 3 0 0 1 2.824-2.995L7 1h18zm-.5 1.5h-17a2 2 0 0 0-2 2v23a2 2 0 0 0 2 2h17a2 2 0 0 0 2-2v-23a2 2 0 0 0-2-2zm0 1a1 1 0 0 1 1 1v23a1 1 0 0 1-1 1h-17a1 1 0 0 1-1-1v-23a1 1 0 0 1 1-1zm-8.5 16c-4.683 0-7.5 1.75-7.5 4.375V26a.5.5 0 0 0 .5.5h14a.5.5 0 0 0 .5-.5v-2.125c0-2.625-2.817-4.374-7.5-4.375zM16.01 8A5.007 5.007 0 0 0 11 13c0 2.76 2.244 5 5.01 5A4.99 4.99 0 0 0 21 13c0-2.76-2.224-5-4.99-5z"/></svg>