<svg width="32" height="32" xmlns="http://www.w3.org/2000/svg"><path d="M0 0h32v32H0z"/><path d="M24.76 23.913c-.608.783-1.869 1.565-3.738 1.565-1.044 0-1.826-.304-2.609-.652-.826-.348-1.74-.739-3.043-.739-.653 0-1.522.087-2.174.304 1.608-.956 2.826-2.782 2.826-4.826 0-.304 0-.565-.044-.826h4.913v-3.522h-6.217c-.174-.217-.304-.478-.478-.695-.87-1.305-1.696-2.565-1.696-4.392 0-2.478 2-4.087 4.565-4.087 2 0 3.696 1.261 4.435 3.087l4.913-2.87C24.543 2.697 21.109 1 16.326 1 11.152 1 5.761 4.478 5.761 10c0 2.13.956 3.696 2 5.217H4.804v3.522h5.218c.304.74.521 1.478.521 2.348 0 2.217-2.043 4.13-4.739 5.435l2.087 4.217c1.74-.956 3.522-1.652 5.044-1.652 1.174 0 2.13.391 3.174.783 1.26.521 2.608 1.13 4.695 1.13 3.174 0 5.218-.957 6.392-2.174l-2.435-4.913z"/></svg>