<svg width="32" height="32" xmlns="http://www.w3.org/2000/svg"><path d="M0 0h32v32H0z"/><path d="M32 15.69c0-2.042-1.59-3.702-3.543-3.702-.953 0-1.817.4-2.453 1.044-2.413-1.667-5.679-2.729-9.295-2.864l1.978-6.537 5.354 1.317-.008.082c0 1.67 1.3 3.028 2.899 3.028 1.597 0 2.896-1.358 2.896-3.028S28.528 2 26.932 2c-1.227 0-2.272.804-2.695 1.93l-5.772-1.42a.49.49 0 0 0-.586.348l-2.206 7.29c-3.784.048-7.212 1.117-9.733 2.835-.632-.613-1.47-.997-2.399-.997C1.588 11.986 0 13.648 0 15.691c0 1.358.71 2.535 1.756 3.179-.07.395-.115.794-.115 1.2 0 5.475 6.411 9.93 14.292 9.93 7.882 0 14.294-4.455 14.294-9.93a6.97 6.97 0 0 0-.1-1.134A3.713 3.713 0 0 0 32 15.69zm-10.652 9.183c-1.11 1.094-2.854 1.627-5.33 1.627L16 26.496l-.018.004c-2.477 0-4.22-.533-5.33-1.627a.505.505 0 0 1 0-.722c.202-.2.53-.2.733 0 .906.893 2.41 1.326 4.597 1.326l.018.004.018-.004c2.187 0 3.691-.434 4.597-1.327a.524.524 0 0 1 .733 0c.203.2.203.523 0 .723zM20.75 20.5a2.252 2.252 0 0 1-2.25-2.25c0-1.24 1.009-2.25 2.25-2.25S23 17.01 23 18.25a2.252 2.252 0 0 1-2.25 2.25zm-9.5 0A2.252 2.252 0 0 1 9 18.25C9 17.01 10.009 16 11.25 16s2.25 1.01 2.25 2.25a2.252 2.252 0 0 1-2.25 2.25z"/></svg>