<svg width="32" height="32" xmlns="http://www.w3.org/2000/svg"><path d="M0 0h32v32H0z"/><path d="M25.5 17.5c3.64 0 6.5 2.86 6.5 6.5 0 3.56-2.737 6.375-6.264 6.496l-.236.004c-3.64 0-6.5-2.86-6.5-6.5 0-3.56 2.737-6.375 6.264-6.496l.236-.004zm-19 0c3.64 0 6.5 2.86 6.5 6.5 0 3.56-2.737 6.375-6.264 6.496L6.5 30.5C2.86 30.5 0 27.64 0 24c0-3.56 2.737-6.375 6.264-6.496L6.5 17.5zm19 3c-1.983 0-3.5 1.517-3.5 3.5s1.517 3.5 3.5 3.5S29 25.983 29 24s-1.517-3.5-3.5-3.5zm-19 0C4.517 20.5 3 22.017 3 24s1.517 3.5 3.5 3.5S10 25.983 10 24s-1.517-3.5-3.5-3.5zm9.55-13.333c.815 0 1.53.242 2.236.75l.25.196 2.534 2.533c1.127 1.128 2.304 1.774 3.921 1.842l.4.008h.455c1.015 0 1.841.814 1.841 1.822 0 .943-.723 1.739-1.686 1.829l-.708.02c-2.704 0-4.823-.952-6.705-2.729l-.225-.218-.713-.713-2.5 2.501 1.8 1.886c.569.497.877 1.19.927 2.06l.006.237V26.5c0 1.012-.82 1.833-1.833 1.833-.947 0-1.735-.72-1.826-1.68l-.007-.153v-6.607l-4.067-3.56c-.66-.494-1-1.303-1-2.266 0-.733.267-1.445.781-2.043l.165-.178 3.687-3.68c.495-.66 1.303-1 2.267-1zM20.717 1.5a3.175 3.175 0 0 1 3.166 3.167 3.175 3.175 0 0 1-3.166 3.166 3.175 3.175 0 0 1-3.167-3.166A3.175 3.175 0 0 1 20.717 1.5z"/></svg>
