<svg width="32" height="32" xmlns="http://www.w3.org/2000/svg"><path d="M0 0h32v32H0z"/><path d="M22.786 20.784c.733-.991 1.207-2.133 1.422-3.426h2.78a11.132 11.132 0 0 1-2.198 5.365l-2.004-1.939zm-5.364 3.36c1.293-.215 2.435-.689 3.426-1.421l2.004 2.004c-1.55 1.206-3.36 1.939-5.429 2.197v-2.78zm9.566-9.5h-2.78c-.216-1.292-.69-2.434-1.422-3.425L24.79 9.28c1.25 1.551 1.982 3.34 2.198 5.365zm-6.012-7.561-6.27 6.14V7.858c-1.981.345-3.63 1.282-4.943 2.812-1.314 1.53-1.971 3.307-1.971 5.332 0 2.024.657 3.801 1.971 5.331 1.314 1.53 2.962 2.467 4.944 2.812v2.78c-2.715-.345-5.01-1.552-6.883-3.62-1.874-2.068-2.81-4.503-2.812-7.303 0-2.801.937-5.236 2.812-7.304 1.875-2.068 4.17-3.275 6.883-3.62V.814l6.27 6.27z"/></svg>