<svg width="32" height="32" xmlns="http://www.w3.org/2000/svg"><path d="M0 0h32v32H0z"/><path d="M16.525 6.687c1.43 0 2.656.758 3.449 2.055 1.85 2.752 3.918 4.105 6.326 4.195l.407.01a2.068 2.068 0 0 1-.148 4.13c-2.693 0-5.124-.953-7.252-2.828l-.667 3.443 3.389 3.366c.482.48.697 1.164.573 1.855l-.04.174-2.091 7.406a2.068 2.068 0 0 1-2.552 1.429 2.073 2.073 0 0 1-1.466-2.39l.038-.162 1.76-6.236-2.718-2.7-.854 3.442a2.074 2.074 0 0 1-2.009 1.569l-.165-.007-7.231-.587a2.068 2.068 0 0 1-1.894-2.228 2.073 2.073 0 0 1 2.063-1.9l.165.006 5.481.445 1.396-5.62.987-4.732h-1.62L8.87 14.918a2.068 2.068 0 0 1-2.889.455 2.073 2.073 0 0 1-.55-2.743l.096-.146 3.601-4.945a2.08 2.08 0 0 1 1.48-.841l.191-.01h5.726zM20.329 0a3.374 3.374 0 1 1 0 6.748 3.374 3.374 0 0 1 0-6.748z"/></svg>
