<svg width="32" height="32" xmlns="http://www.w3.org/2000/svg"><path d="M0 0h32v32H0z"/><path d="M25.275 11.779a3.37 3.37 0 0 1 3.362-3.362A3.37 3.37 0 0 1 32 11.778a3.37 3.37 0 0 1-3.362 3.362h-3.363v-3.361zm-1.691 0a3.37 3.37 0 0 1-3.364 3.361 3.37 3.37 0 0 1-3.36-3.36V3.362A3.37 3.37 0 0 1 20.22 0a3.37 3.37 0 0 1 3.364 3.362v8.417zM6.723 20.22a3.37 3.37 0 0 1-3.36 3.364A3.37 3.37 0 0 1 0 20.22a3.37 3.37 0 0 1 3.362-3.36h3.36v3.36zm1.694 0a3.37 3.37 0 0 1 3.361-3.36 3.37 3.37 0 0 1 3.362 3.36v8.417A3.37 3.37 0 0 1 11.78 32h-.001a3.37 3.37 0 0 1-3.362-3.362V20.22zM11.78 6.723a3.37 3.37 0 0 1-3.362-3.36A3.37 3.37 0 0 1 11.778 0a3.37 3.37 0 0 1 3.362 3.362v3.36h-3.361zm0 1.694a3.37 3.37 0 0 1 3.361 3.361 3.37 3.37 0 0 1-3.36 3.362H3.362A3.37 3.37 0 0 1 0 11.78v-.001a3.37 3.37 0 0 1 3.362-3.362h8.417zm8.441 16.858a3.37 3.37 0 0 1 3.364 3.362A3.37 3.37 0 0 1 20.22 32a3.37 3.37 0 0 1-3.36-3.362v-3.363h3.36zm0-1.691a3.37 3.37 0 0 1-3.36-3.364 3.368 3.368 0 0 1 3.36-3.36h8.417A3.37 3.37 0 0 1 32 20.22a3.37 3.37 0 0 1-3.362 3.364H20.22z"/></svg>