<svg width="32" height="32" xmlns="http://www.w3.org/2000/svg"><path d="M0 0h32v32H0z"/><path d="M16.272 1.058c1.32 0 5.796.367 7.907 5.095.705 1.59.537 4.292.399 6.463l-.004.08c-.016.24-.029.46-.04.68.1.06.271.12.535.12.4-.021.879-.16 1.377-.402.22-.117.459-.138.619-.138.243 0 .479.039.679.12.6.198.979.638.979 1.117.02.598-.52 1.119-1.617 1.556-.119.04-.279.1-.459.16-.6.18-1.519.48-1.777 1.08-.12.299-.081.698.16 1.156l.02.02c.08.181 2.035 4.634 6.388 5.352.34.06.58.36.56.68 0 .1-.02.198-.06.3-.32.759-1.697 1.317-4.195 1.695-.079.12-.16.5-.219.76a5.39 5.39 0 0 1-.179.736c-.101.361-.36.54-.74.54h-.04c-.18 0-.417-.04-.717-.099-.48-.1-1.02-.18-1.697-.18-.4 0-.799.02-1.217.1-.8.139-1.497.619-2.297 1.178-1.137.8-2.435 1.718-4.392 1.718-.08 0-.159-.02-.24-.02h-.199c-1.957 0-3.236-.9-4.372-1.718-.799-.56-1.476-1.038-2.276-1.178a8.839 8.839 0 0 0-1.237-.1c-.72 0-1.277.12-1.696.2a3.863 3.863 0 0 1-.72.098c-.499 0-.697-.299-.777-.56-.081-.256-.12-.519-.18-.756-.061-.24-.14-.659-.221-.76-2.557-.296-3.933-.855-4.252-1.634a.807.807 0 0 1-.073-.3.662.662 0 0 1 .56-.68c4.352-.72 6.307-5.171 6.388-5.36l.021-.038c.24-.46.299-.86.159-1.16-.26-.578-1.179-.877-1.776-1.079a3.01 3.01 0 0 1-.461-.159c-1.476-.58-1.676-1.24-1.596-1.697.12-.639.899-1.056 1.557-1.056.195 0 .36.039.511.098.56.26 1.052.4 1.472.4.312 0 .512-.08.62-.14l-.061-.758c-.131-2.168-.3-4.868.409-6.45 2.052-4.702 6.515-5.063 7.832-5.063l.559-.02.076.003z"/></svg>