<svg width="32" height="32" xmlns="http://www.w3.org/2000/svg"><path d="M0 0h32v32H0z"/><path d="M24.671 23.5c1.288 0 2.042.279 3.103.932.534.34.7.401 1.226.401a.5.5 0 0 1 .5.5V28a.5.5 0 0 1-.5.5c-1.19 0-1.923-.238-2.856-.783l-.568-.338-.155-.077c-.216-.096-.426-.135-.75-.135-.526 0-.692.06-1.237.408l-.369.218-.3.16c-.72.36-1.462.547-2.423.547-1.19 0-1.923-.238-2.856-.783l-.568-.338-.155-.077c-.216-.096-.426-.135-.75-.135-.526 0-.692.06-1.237.408l-.357.21-.315.168c-.724.358-1.472.547-2.433.547-1.288 0-2.042-.279-3.103-.932-.525-.335-.708-.401-1.226-.401-.46 0-.656.052-1.07.304l-.167.104c-.173.104-.261.157-.357.21l-.315.168C4.71 28.31 3.961 28.5 3 28.5a.5.5 0 0 1-.5-.5v-2.667a.5.5 0 0 1 .5-.5c.526 0 .692-.06 1.237-.408l.357-.21.315-.168c.724-.358 1.472-.547 2.433-.547 1.288 0 2.042.279 3.103.932.534.34.7.401 1.226.401s.692-.06 1.237-.408l.357-.21.315-.168c.724-.358 1.472-.547 2.433-.547 1.19 0 1.923.238 2.856.784l.568.337.155.077c.216.096.426.135.75.135.518 0 .7-.066 1.233-.405 1.054-.65 1.808-.928 3.096-.928zm-.026-6c1.19 0 1.923.238 2.856.784l.41.245c.425.247.634.304 1.089.304a.5.5 0 0 1 .5.5V22a.5.5 0 0 1-.5.5c-1.19 0-1.923-.237-2.856-.783l-.568-.338-.155-.077c-.216-.096-.426-.135-.75-.135-.526 0-.692.06-1.233.406-1.054.648-1.808.927-3.096.927-1.19 0-1.923-.237-2.856-.783l-.568-.338-.155-.077c-.216-.096-.426-.135-.75-.135-.526 0-.692.06-1.233.406-1.054.648-1.808.927-3.096.927-1.19 0-1.923-.237-2.856-.783l-.568-.338-.155-.077c-.216-.096-.426-.135-.75-.135-.518 0-.7.066-1.241.41l-.289.17-.39.207c-.73.359-1.476.546-2.435.546a.5.5 0 0 1-.5-.5v-2.667a.5.5 0 0 1 .5-.5c.526 0 .692-.06 1.233-.405 1.054-.65 1.808-.928 3.096-.928 1.19 0 1.923.238 2.856.784l.568.337.155.077c.216.096.426.135.75.135.526 0 .692-.06 1.233-.405 1.054-.65 1.808-.928 3.096-.928 1.19 0 1.923.238 2.856.784l.568.337.155.077c.216.096.426.135.75.135.518 0 .7-.066 1.233-.405 1.054-.65 1.808-.928 3.096-.928zM6.842 3.5l.394.001c3.135.03 5.007.714 6.934 2.604l.212.213 8.346 8.546a.5.5 0 0 1-.118.788c-.165.09-.33.185-.504.29-.673.428-1.029.558-1.764.558-.538 0-.918-.092-1.32-.3l-.116-.063-.543-.324c-.79-.463-1.369-.646-2.35-.646-.888 0-1.53.186-2.192.55l-.13.073-.256.152c-.68.434-1.02.558-1.764.558-.676 0-1.018-.103-1.574-.44l-.174-.109-.33-.192-.205-.111-.178-.088-.233-.1a.5.5 0 0 1-.16-.809l3.885-3.984-.96-.984c-1.29-1.323-2.497-1.817-4.541-1.848l-.303-.001a2.168 2.168 0 0 1-2.16-2.127 2.171 2.171 0 0 1 1.96-2.197l.144-.01zm15.434 0a3.776 3.776 0 1 1 0 7.552 3.776 3.776 0 0 1 0-7.552z"/></svg>
