<svg width="32" height="32" xmlns="http://www.w3.org/2000/svg"><path d="M16 1.334c1.993 0 3.894.387 5.703 1.161 1.809.774 3.368 1.816 4.677 3.125 1.31 1.31 2.351 2.868 3.125 4.677A14.346 14.346 0 0 1 30.666 16c0 1.993-.387 3.894-1.161 5.703-.774 1.809-1.816 3.368-3.125 4.677-1.31 1.31-2.868 2.351-4.677 3.125A14.346 14.346 0 0 1 16 30.666c-1.993 0-3.894-.387-5.703-1.161-1.809-.774-3.368-1.816-4.677-3.125-1.31-1.31-2.351-2.868-3.125-4.677A14.346 14.346 0 0 1 1.334 16c0-1.993.387-3.894 1.161-5.703.774-1.809 1.816-3.368 3.125-4.677 1.31-1.31 2.868-2.351 4.677-3.125A14.346 14.346 0 0 1 16 1.334zm0 2.667c-1.625 0-3.179.318-4.661.953-1.482.635-2.758 1.488-3.828 2.557-1.07 1.07-1.922 2.345-2.557 3.828A11.736 11.736 0 0 0 4.001 16c0 1.625.317 3.178.953 4.661.636 1.483 1.488 2.759 2.557 3.828 1.069 1.07 2.345 1.922 3.828 2.557 1.483.635 3.037.953 4.661.953 1.624 0 3.178-.318 4.661-.953 1.483-.635 2.76-1.488 3.828-2.557 1.069-1.07 1.921-2.345 2.557-3.828A11.69 11.69 0 0 0 27.999 16c0-1.625-.318-3.178-.953-4.661-.635-1.483-1.487-2.759-2.557-3.828-1.07-1.07-2.346-1.922-3.828-2.557A11.708 11.708 0 0 0 16 4.001zm0 2.667c1.264 0 2.472.247 3.625.74a9.382 9.382 0 0 1 2.979 1.99 9.382 9.382 0 0 1 1.99 2.979 9.119 9.119 0 0 1 .74 3.625 9.119 9.119 0 0 1-.74 3.625 9.382 9.382 0 0 1-1.99 2.979 9.382 9.382 0 0 1-2.979 1.99 9.119 9.119 0 0 1-3.625.74 9.119 9.119 0 0 1-3.625-.74 9.382 9.382 0 0 1-2.979-1.99 9.382 9.382 0 0 1-1.99-2.979 9.119 9.119 0 0 1-.74-3.625c0-1.264.247-2.472.74-3.625a9.382 9.382 0 0 1 1.99-2.979 9.382 9.382 0 0 1 2.979-1.99A9.119 9.119 0 0 1 16 6.668zm0 2.666c-.903 0-1.766.177-2.589.531a6.716 6.716 0 0 0-2.125 1.422 6.754 6.754 0 0 0-1.422 2.125 6.46 6.46 0 0 0-.531 2.589c0 .903.178 1.766.531 2.589a6.709 6.709 0 0 0 1.422 2.125 6.746 6.746 0 0 0 2.125 1.422 6.478 6.478 0 0 0 2.589.531c.904 0 1.767-.177 2.589-.531a6.746 6.746 0 0 0 2.125-1.422 6.709 6.709 0 0 0 1.422-2.125 6.52 6.52 0 0 0 .531-2.589 6.46 6.46 0 0 0-.531-2.589 6.754 6.754 0 0 0-1.422-2.125 6.716 6.716 0 0 0-2.125-1.422A6.487 6.487 0 0 0 16 9.334zm0 2.667a3.85 3.85 0 0 1 2.828 1.172A3.854 3.854 0 0 1 20 16.001a3.85 3.85 0 0 1-1.172 2.828A3.854 3.854 0 0 1 16 20.001a3.85 3.85 0 0 1-2.828-1.172A3.854 3.854 0 0 1 12 16.001a3.85 3.85 0 0 1 1.172-2.828A3.854 3.854 0 0 1 16 12.001zm0 2.667c-.368 0-.682.13-.943.391-.26.26-.391.575-.391.943s.13.682.391.943c.26.26.575.391.943.391s.682-.13.943-.391c.26-.26.391-.575.391-.943s-.13-.682-.391-.943a1.285 1.285 0 0 0-.943-.391z"/><path d="M0 0h32v32H0z"/></svg>