<svg width="32" height="32" xmlns="http://www.w3.org/2000/svg"><path d="M0 0h32v32H0z"/><path d="M24.615 27.4c0-.656-.557-1.2-1.23-1.2-.673 0-1.231.544-1.231 1.2 0 .656.558 1.2 1.23 1.2.674 0 1.231-.544 1.231-1.2zm4.923 0c0-.656-.557-1.2-1.23-1.2-.673 0-1.231.544-1.231 1.2 0 .656.558 1.2 1.23 1.2.674 0 1.231-.544 1.231-1.2zM32 23.2v6c0 .994-.827 1.8-1.846 1.8H1.846C.826 31 0 30.194 0 29.2v-6c0-.994.827-1.8 1.846-1.8h8.212a3.726 3.726 0 0 0 3.48 2.4h4.924a3.726 3.726 0 0 0 3.48-2.4h8.212c1.02 0 1.846.806 1.846 1.8zm-6.25-12.15c-.192.45-.635.75-1.135.75h-4.923v8.4c0 .656-.557 1.2-1.23 1.2h-4.924c-.673 0-1.23-.544-1.23-1.2v-8.4H7.385c-.5 0-.943-.3-1.135-.75a1.136 1.136 0 0 1 .27-1.294l8.615-8.4A1.19 1.19 0 0 1 16 1c.308 0 .635.113.865.356l8.616 8.4c.365.338.461.863.269 1.294z"/></svg>