<svg width="32" height="32" xmlns="http://www.w3.org/2000/svg"><path d="M0 0h32v32H0z"/><path d="M31.95 8.418c-.14 3.117-2.318 7.386-6.52 12.806-4.355 5.658-8.03 8.487-11.048 8.487-1.878 0-3.436-1.722-4.734-5.17l-2.556-9.48c-.959-3.444-1.984-5.169-3.08-5.169-.24 0-1.075.504-2.508 1.509L0 9.459a426.064 426.064 0 0 0 4.665-4.168C6.769 3.47 8.349 2.514 9.4 2.415c2.49-.24 4.02 1.464 4.595 5.114.62 3.936 1.05 6.381 1.292 7.338.72 3.265 1.507 4.895 2.368 4.895.67 0 1.674-1.059 3.017-3.177 1.338-2.117 2.053-3.728 2.15-4.835.191-1.828-.526-2.745-2.152-2.745-.766 0-1.555.16-2.368.52 1.578-5.155 4.575-7.672 9.01-7.512 3.297.08 4.835 2.218 4.655 6.393l-.018.012z"/></svg>