<svg width="32" height="32" xmlns="http://www.w3.org/2000/svg"><path d="M0 0h32v32H0z"/><path d="M15.156 7.182c1.407 0 2.6.753 3.42 2.1 1.903 3.16 4.002 4.653 6.4 4.653A2.03 2.03 0 0 1 27 15.971a2.03 2.03 0 0 1-2.025 2.036c-2.665 0-5.067-1.052-7.155-3.105l-.591 3.065 2.278 2.272c.334.333.542.773.59 1.268l.008.177v8.28A2.03 2.03 0 0 1 18.081 32a2.034 2.034 0 0 1-2.019-1.874l-.006-.162v-7.432l-1.758-1.751-2.092 9.618a2.03 2.03 0 0 1-2.252 1.582l-.16-.028a2.04 2.04 0 0 1-1.572-2.264l.028-.16 2.736-12.574.873-4.208-1.81.81v3.998a2.03 2.03 0 0 1-2.024 2.036 2.034 2.034 0 0 1-2.018-1.873L6 17.555v-5.372c0-.763.425-1.46 1.117-1.82l.151-.068L14.4 7.33c.24-.098.497-.148.756-.148zM17.393 0a3.307 3.307 0 0 1 3.298 3.316 3.307 3.307 0 0 1-3.298 3.315 3.307 3.307 0 0 1-3.297-3.315A3.307 3.307 0 0 1 17.393 0z"/></svg>
