<svg width="32" height="32" xmlns="http://www.w3.org/2000/svg"><path d="M0 0h32v32H0z"/><path d="M27.278 4.65C24.284 1.65 20.303 0 16.06 0 7.322 0 .21 7.112.21 15.856c0 2.794.732 5.525 2.12 7.925L.078 32l8.405-2.206a15.852 15.852 0 0 0 7.575 1.931h.007c8.737 0 15.856-7.113 15.856-15.856 0-4.238-1.65-8.219-4.644-11.219zm-11.212 24.4c-2.37 0-4.688-.637-6.713-1.838l-.481-.287-4.988 1.306 1.332-4.862-.313-.5a13.085 13.085 0 0 1-2.019-7.013c0-7.268 5.913-13.181 13.188-13.181 3.519 0 6.831 1.375 9.319 3.862a13.11 13.11 0 0 1 3.856 9.325c-.006 7.275-5.919 13.188-13.181 13.188zm7.225-9.875c-.394-.2-2.344-1.156-2.707-1.288-.362-.13-.625-.2-.893.2-.263.394-1.025 1.288-1.257 1.557-.23.262-.462.3-.856.1-.394-.2-1.675-.619-3.187-1.969-1.175-1.05-1.975-2.35-2.207-2.744-.23-.394-.025-.612.175-.806.182-.175.394-.463.594-.694.2-.231.263-.394.394-.662.131-.263.069-.494-.031-.694-.1-.2-.894-2.15-1.22-2.944-.318-.775-.65-.668-.893-.681-.231-.013-.494-.013-.756-.013-.263 0-.694.1-1.056.494-.363.394-1.388 1.356-1.388 3.306s1.419 3.832 1.619 4.1c.2.263 2.794 4.27 6.769 5.982.943.406 1.68.65 2.256.837.95.3 1.812.256 2.494.157.762-.113 2.343-.957 2.675-1.882.33-.925.33-1.718.23-1.881-.093-.175-.355-.275-.755-.475z"/></svg>