<svg width="32" height="32" xmlns="http://www.w3.org/2000/svg"><g fill="none" fill-rule="evenodd"><path d="M0 0h32v32H0z"/><path d="M11.403 15.612v3.877h-.5a3.83 3.83 0 0 0-3.817 3.817 3.83 3.83 0 0 0 3.817 3.816 3.83 3.83 0 0 0 3.816-3.816v-.5h3.878v.5A7.697 7.697 0 0 1 10.903 31a7.697 7.697 0 0 1-7.694-7.694 7.697 7.697 0 0 1 7.694-7.694h.5zm9.075-8.195c2.41 0 4.06 2.383 3.19 4.608l-.073.171-2.08 4.574h1.899a3.39 3.39 0 0 1 3.372 3.194l.005.183v8.414h-3.877v-7.194h-6.666c-2.38 0-4.042-2.474-3.19-4.705l.072-.172 2.319-5.195H13.37l-.977 2.3-3.71-1.024L9.85 9.438a3.45 3.45 0 0 1 2.937-2.014l.21-.007h7.481zM23.414 1a3.378 3.378 0 1 1 0 6.755 3.378 3.378 0 0 1 0-6.755z" fill="#000" fill-rule="nonzero"/></g></svg>