<svg width="32" height="32" xmlns="http://www.w3.org/2000/svg"><path d="M0 0h32v32H0z"/><path d="M31.675 9.603s-.313-2.206-1.275-3.175c-1.219-1.275-2.581-1.281-3.206-1.356C22.719 4.747 16 4.747 16 4.747h-.012s-6.719 0-11.194.325c-.625.075-1.987.081-3.206 1.356C.625 7.397.319 9.603.319 9.603S0 12.191 0 14.784v2.425c0 2.587.319 5.181.319 5.181s.313 2.206 1.269 3.175c1.219 1.275 2.819 1.231 3.531 1.369 2.563.244 10.881.319 10.881.319s6.725-.012 11.2-.331c.625-.075 1.988-.081 3.206-1.356.962-.969 1.275-3.175 1.275-3.175S32 19.804 32 17.21v-2.425c-.006-2.588-.325-5.181-.325-5.181v-.001zm-18.987 10.55v-8.994l8.644 4.513-8.644 4.481z"/></svg>